<svg width="21" height="20" viewBox="0 0 21 20"  xmlns="http://www.w3.org/2000/svg">
<path d="M15.9286 14.4464C15.9286 14.5887 15.803 14.7143 15.6607 14.7143H3.33929C3.19699 14.7143 3.07143 14.5887 3.07143 14.4464V8.01786C3.24721 8.21875 3.43973 8.4029 3.649 8.57031C4.84598 9.49107 6.05134 10.4286 7.21484 11.3996C7.84263 11.9269 8.62109 12.5714 9.49163 12.5714H9.5H9.50837C10.3789 12.5714 11.1574 11.9269 11.7852 11.3996C12.9487 10.4286 14.154 9.49107 15.351 8.57031C15.5603 8.4029 15.7528 8.21875 15.9286 8.01786V14.4464ZM15.9286 5.649C15.9286 6.36049 15.2422 7.28962 14.6981 7.71652C13.5765 8.59542 12.4548 9.4827 11.3415 10.37C10.8979 10.7299 10.0943 11.5 9.50837 11.5H9.5H9.49163C8.90569 11.5 8.10212 10.7299 7.65848 10.37C6.5452 9.4827 5.42355 8.59542 4.3019 7.71652C3.54855 7.12221 3.07143 6.29353 3.07143 5.33929C3.07143 5.19699 3.19699 5.07143 3.33929 5.07143H15.6607C15.9788 5.07143 15.9286 5.43973 15.9286 5.649ZM17 5.33929C17 4.60268 16.3973 4 15.6607 4H3.33929C2.60268 4 2 4.60268 2 5.33929V14.4464C2 15.183 2.60268 15.7857 3.33929 15.7857H15.6607C16.3973 15.7857 17 15.183 17 14.4464V5.33929Z" />
</svg>
